<?xml version="1.0" ?><!DOCTYPE svg  PUBLIC '-//W3C//DTD SVG 1.1//EN'  'http://www.w3.org/Graphics/SVG/1.1/DTD/svg11.dtd'><svg enable-background="new 0 0 39.232 35.04" height="35.04px" id="Layer_1" version="1.1" viewBox="0 0 39.232 35.04" width="39.232px" xml:space="preserve" xmlns="http://www.w3.org/2000/svg" xmlns:xlink="http://www.w3.org/1999/xlink"><g><g><g><path d="M37.079,35.04h-3.224c-0.964,0-1.749-0.785-1.749-1.75v-1.4c0-0.138-0.112-0.25-0.25-0.25H7.89     c-0.138,0-0.25,0.112-0.25,0.25v1.401c0,0.964-0.785,1.749-1.75,1.749H2.441c-0.866,0-1.725-0.635-1.997-1.477     c-0.227-0.699-0.537-1.657-0.417-2.605c0.46-3.629,0.95-7.172,1.876-10.603c0.143-0.526,0.29-1.049,0.436-1.57     c0.876-3.116,1.704-6.058,1.428-9.325C3.736,9.082,3.698,8.7,3.66,8.315C3.425,5.936,3.183,3.477,4.174,1.308     C4.548,0.49,5.572,0,6.347,0h27.675c0.965,0,1.75,0.785,1.75,1.75l-0.001,11.983c0,0.052-0.005,0.103-0.016,0.152     c0.189,0.694,0.373,1.389,0.557,2.084c0.405,1.532,0.824,3.116,1.292,4.65c1.032,3.384,2.123,7.896,1.388,12.796     C38.855,34.327,38.015,35.04,37.079,35.04z M7.89,30.14h23.967c0.965,0,1.75,0.785,1.75,1.75v1.4c0,0.138,0.112,0.25,0.249,0.25     h3.224c0.187,0,0.404-0.175,0.43-0.347c0.69-4.602-0.353-8.903-1.339-12.136c-0.476-1.561-0.899-3.159-1.308-4.704     c-0.187-0.705-0.373-1.41-0.565-2.113c-0.032-0.119-0.034-0.239-0.01-0.352c-0.011-0.05-0.016-0.102-0.016-0.155L34.271,1.75     c0-0.138-0.112-0.25-0.25-0.25H6.347c-0.315,0-0.722,0.243-0.808,0.432c-0.823,1.8-0.601,4.055-0.386,6.236     C5.191,8.56,5.23,8.949,5.263,9.334c0.298,3.537-0.605,6.75-1.479,9.857c-0.145,0.516-0.291,1.034-0.432,1.555     c-0.902,3.338-1.383,6.825-1.836,10.4c-0.078,0.615,0.162,1.357,0.355,1.954c0.073,0.226,0.35,0.439,0.57,0.439H5.89     c0.138,0,0.25-0.112,0.25-0.249V31.89C6.14,30.925,6.925,30.14,7.89,30.14z"/></g></g><g><g><path d="M19.564,27.156c-5.771,0-11.542-0.003-17.312-0.01c-0.366-0.001-0.679-0.135-0.93-0.243     c-0.079-0.034-0.158-0.068-0.237-0.095c-0.392-0.133-0.603-0.559-0.47-0.951c0.133-0.392,0.556-0.603,0.951-0.47     c0.115,0.039,0.23,0.087,0.345,0.137c0.113,0.048,0.284,0.121,0.344,0.122c11.539,0.014,23.08,0.014,34.618,0     c0.058,0,0.229-0.073,0.341-0.121c0.116-0.049,0.232-0.098,0.348-0.137c0.394-0.133,0.818,0.078,0.95,0.471     c0.133,0.393-0.078,0.818-0.471,0.95c-0.079,0.027-0.158,0.062-0.237,0.096c-0.251,0.107-0.563,0.241-0.928,0.242     C31.106,27.152,25.335,27.156,19.564,27.156z"/></g></g><g><g><path d="M31.62,14.175c-0.414,0-0.75-0.336-0.75-0.75c0-2.033-0.192-3.016-0.687-3.505c-0.493-0.488-1.513-0.68-3.502-0.661     C26.158,9.26,25.619,9.232,25.081,9.2c-1.943-0.115-3.621-0.214-4.951,1.315c-0.272,0.311-0.746,0.345-1.058,0.074     s-0.346-0.746-0.074-1.058c1.815-2.087,4.131-1.951,6.171-1.828c0.504,0.03,0.997,0.066,1.499,0.056     c2.107-0.017,3.623,0.156,4.571,1.095c0.942,0.933,1.131,2.44,1.131,4.571C32.37,13.839,32.034,14.175,31.62,14.175z"/></g></g><g><g><path d="M7.2,14.175c-0.046,0-0.093-0.004-0.14-0.013c-0.407-0.077-0.675-0.469-0.599-0.876c0.885-4.708,1.18-4.939,6.302-4.939     h2.783c4.226,0.004,5.033,0.81,5.077,5.07c0.004,0.414-0.328,0.753-0.742,0.758c-0.002,0-0.005,0-0.008,0     c-0.411,0-0.746-0.331-0.75-0.742c-0.036-3.448-0.169-3.583-3.579-3.586h-2.781c-2.132,0-3.306,0-3.798,0.383     c-0.471,0.367-0.669,1.421-1.029,3.334C7.869,13.924,7.554,14.175,7.2,14.175z"/></g></g><g><g><path d="M10.1,14.775c-1.169,0-2.342-0.09-3.477-0.178c-0.544-0.042-1.088-0.083-1.632-0.116     c-0.413-0.024-0.729-0.379-0.704-0.793c0.024-0.413,0.377-0.726,0.793-0.704c0.552,0.033,1.105,0.075,1.658,0.117     c1.168,0.09,2.38,0.176,3.546,0.172c5.048-0.042,10.095-0.118,15.143-0.194l6.493-0.095c0.641-0.009,1.281-0.007,1.921-0.004     l0.872,0.002c0.414,0,0.75,0.336,0.75,0.75s-0.336,0.75-0.75,0.75l-0.877-0.002c-0.631-0.003-1.263-0.004-1.895,0.004     l-6.491,0.095c-5.051,0.076-10.101,0.152-15.152,0.194C10.231,14.775,10.165,14.775,10.1,14.775z"/></g></g></g></svg>