<?xml version="1.0" ?><svg viewBox="0 0 61.9 60.96" xmlns="http://www.w3.org/2000/svg"><defs><style>.cls-1{fill:none;stroke:#373535;stroke-linecap:round;stroke-miterlimit:10;}</style></defs><title/><g data-name="Layer 2" id="Layer_2"><g data-name="Layer 1" id="Layer_1-2"><line class="cls-1" x1="47.64" x2="43.81" y1="60.46" y2="60.46"/><path class="cls-1" d="M48.52,12.34H58a3.4,3.4,0,0,1,3.4,3.4V57.06a3.4,3.4,0,0,1-3.4,3.4H49.93"/><line class="cls-1" x1="42.22" x2="44.81" y1="12.34" y2="12.34"/><path class="cls-1" d="M14.31,60.46H3.9a3.4,3.4,0,0,1-3.4-3.4V15.74a3.4,3.4,0,0,1,3.4-3.4H40.06"/><line class="cls-1" x1="38.39" x2="19.81" y1="60.46" y2="60.46"/><line class="cls-1" x1="32.81" x2="28.81" y1="55.59" y2="55.59"/><path class="cls-1" d="M28.81,17.43H39a3.19,3.19,0,0,1,3.19,3.19V52.4A3.19,3.19,0,0,1,39,55.59H35.68"/><line class="cls-1" x1="16.93" x2="24.18" y1="17.43" y2="17.43"/><line class="cls-1" x1="11.56" x2="13.68" y1="17.43" y2="17.43"/><path class="cls-1" d="M24.68,55.59H8.5A3.19,3.19,0,0,1,5.31,52.4V20.62A3.19,3.19,0,0,1,8.5,17.43H9.68"/><line class="cls-1" x1="46.36" x2="57.39" y1="17.43" y2="17.43"/><line class="cls-1" x1="46.36" x2="57.39" y1="20.36" y2="20.36"/><line class="cls-1" x1="46.36" x2="57.39" y1="23.29" y2="23.29"/><line class="cls-1" x1="55.29" x2="57.39" y1="30.18" y2="30.18"/><line class="cls-1" x1="49.88" x2="53.41" y1="30.18" y2="30.18"/><line class="cls-1" x1="46.36" x2="48.12" y1="30.18" y2="30.18"/><line class="cls-1" x1="52.66" x2="57.39" y1="33.77" y2="33.77"/><line class="cls-1" x1="46.36" x2="50.68" y1="33.77" y2="33.77"/><line class="cls-1" x1="55.29" x2="57.39" y1="37.35" y2="37.35"/><line class="cls-1" x1="49.88" x2="53.41" y1="37.35" y2="37.35"/><line class="cls-1" x1="46.36" x2="48.52" y1="37.35" y2="37.35"/><line class="cls-1" x1="56.34" x2="57.39" y1="40.94" y2="40.94"/><line class="cls-1" x1="52.66" x2="55.02" y1="40.94" y2="40.94"/><line class="cls-1" x1="48.52" x2="50.68" y1="40.94" y2="40.94"/><line class="cls-1" x1="46.36" x2="47.44" y1="40.94" y2="40.94"/><line class="cls-1" x1="12.46" x2="24.11" y1="0.5" y2="12.34"/><line class="cls-1" x1="35.07" x2="23.42" y1="0.5" y2="12.34"/></g></g></svg>